<mxfile host="app.diagrams.net" agent="Mozilla/5.0 (Windows NT 10.0; Win64; x64) AppleWebKit/537.36 (KHTML, like Gecko) Chrome/126.0.0.0 YaBrowser/24.7.0.0 Safari/537.36" version="24.7.7">
  <diagram name="Страница — 1" id="TgBc1NKmAlmw3XBj5I1x">
    <mxGraphModel dx="1050" dy="567" grid="1" gridSize="10" guides="1" tooltips="1" connect="1" arrows="1" fold="1" page="1" pageScale="1" pageWidth="827" pageHeight="1169" math="0" shadow="0">
      <root>
        <mxCell id="0" />
        <mxCell id="1" parent="0" />
        <mxCell id="BwyAsZSVWtQcep6ZcAnb-1" value="" style="rounded=0;whiteSpace=wrap;html=1;" vertex="1" parent="1">
          <mxGeometry x="50" y="50" width="760" height="520" as="geometry" />
        </mxCell>
        <mxCell id="BwyAsZSVWtQcep6ZcAnb-2" value="" style="rounded=0;whiteSpace=wrap;html=1;fillColor=#e1d5e7;strokeColor=#9673a6;" vertex="1" parent="1">
          <mxGeometry x="60" y="60" width="550" height="30" as="geometry" />
        </mxCell>
        <mxCell id="BwyAsZSVWtQcep6ZcAnb-3" value="Войти/Выйти" style="rounded=0;whiteSpace=wrap;html=1;fillColor=#e1d5e7;strokeColor=#9673a6;fontColor=#B266FF;fontStyle=5" vertex="1" parent="1">
          <mxGeometry x="630" y="60" width="160" height="30" as="geometry" />
        </mxCell>
        <mxCell id="BwyAsZSVWtQcep6ZcAnb-4" value="Главная" style="text;html=1;align=center;verticalAlign=middle;whiteSpace=wrap;rounded=0;fontColor=#B266FF;fontStyle=5" vertex="1" parent="1">
          <mxGeometry x="60" y="60" width="60" height="30" as="geometry" />
        </mxCell>
        <mxCell id="BwyAsZSVWtQcep6ZcAnb-5" value="" style="shape=internalStorage;whiteSpace=wrap;html=1;backgroundOutline=1;" vertex="1" parent="1">
          <mxGeometry x="60" y="210" width="550" height="296" as="geometry" />
        </mxCell>
        <mxCell id="BwyAsZSVWtQcep6ZcAnb-6" value="" style="endArrow=none;html=1;rounded=0;exitX=-0.001;exitY=0.165;exitDx=0;exitDy=0;exitPerimeter=0;entryX=0.995;entryY=0.165;entryDx=0;entryDy=0;entryPerimeter=0;" edge="1" parent="1">
          <mxGeometry width="50" height="50" relative="1" as="geometry">
            <mxPoint x="60.00000000000004" y="284.00000000000006" as="sourcePoint" />
            <mxPoint x="607.8" y="284.00000000000006" as="targetPoint" />
            <Array as="points">
              <mxPoint x="330" y="284" />
            </Array>
          </mxGeometry>
        </mxCell>
        <mxCell id="BwyAsZSVWtQcep6ZcAnb-7" value="" style="endArrow=none;html=1;rounded=0;exitX=-0.001;exitY=0.165;exitDx=0;exitDy=0;exitPerimeter=0;entryX=0.995;entryY=0.165;entryDx=0;entryDy=0;entryPerimeter=0;" edge="1" parent="1">
          <mxGeometry width="50" height="50" relative="1" as="geometry">
            <mxPoint x="61.100000000000044" y="304.00000000000006" as="sourcePoint" />
            <mxPoint x="608.9" y="304.00000000000006" as="targetPoint" />
            <Array as="points">
              <mxPoint x="331.1" y="304" />
            </Array>
          </mxGeometry>
        </mxCell>
        <mxCell id="BwyAsZSVWtQcep6ZcAnb-8" style="edgeStyle=orthogonalEdgeStyle;rounded=0;orthogonalLoop=1;jettySize=auto;html=1;exitX=0.5;exitY=1;exitDx=0;exitDy=0;" edge="1" parent="1" source="BwyAsZSVWtQcep6ZcAnb-5" target="BwyAsZSVWtQcep6ZcAnb-5">
          <mxGeometry relative="1" as="geometry" />
        </mxCell>
        <mxCell id="BwyAsZSVWtQcep6ZcAnb-9" value="" style="endArrow=none;html=1;rounded=0;entryX=0.75;entryY=0;entryDx=0;entryDy=0;exitX=0.75;exitY=1;exitDx=0;exitDy=0;" edge="1" parent="1" source="BwyAsZSVWtQcep6ZcAnb-5" target="BwyAsZSVWtQcep6ZcAnb-5">
          <mxGeometry width="50" height="50" relative="1" as="geometry">
            <mxPoint x="208" y="404" as="sourcePoint" />
            <mxPoint x="208" y="254" as="targetPoint" />
          </mxGeometry>
        </mxCell>
        <mxCell id="BwyAsZSVWtQcep6ZcAnb-10" value="Публикация" style="text;html=1;align=center;verticalAlign=middle;whiteSpace=wrap;rounded=0;fontStyle=1" vertex="1" parent="1">
          <mxGeometry x="230" y="205" width="60" height="30" as="geometry" />
        </mxCell>
        <mxCell id="BwyAsZSVWtQcep6ZcAnb-11" value="Цитирования" style="text;html=1;align=center;verticalAlign=middle;whiteSpace=wrap;rounded=0;fontStyle=1" vertex="1" parent="1">
          <mxGeometry x="510" y="204" width="60" height="30" as="geometry" />
        </mxCell>
        <mxCell id="BwyAsZSVWtQcep6ZcAnb-12" value="12" style="text;html=1;align=center;verticalAlign=middle;whiteSpace=wrap;rounded=0;" vertex="1" parent="1">
          <mxGeometry x="510" y="236.5" width="60" height="30" as="geometry" />
        </mxCell>
        <mxCell id="BwyAsZSVWtQcep6ZcAnb-13" value="" style="ellipse;whiteSpace=wrap;html=1;" vertex="1" parent="1">
          <mxGeometry x="625" y="110" width="170" height="170" as="geometry" />
        </mxCell>
        <mxCell id="BwyAsZSVWtQcep6ZcAnb-14" value="" style="endArrow=none;html=1;rounded=0;entryX=1;entryY=0;entryDx=0;entryDy=0;" edge="1" parent="1" target="BwyAsZSVWtQcep6ZcAnb-13">
          <mxGeometry width="50" height="50" relative="1" as="geometry">
            <mxPoint x="720" y="190" as="sourcePoint" />
            <mxPoint x="740" y="170" as="targetPoint" />
          </mxGeometry>
        </mxCell>
        <mxCell id="BwyAsZSVWtQcep6ZcAnb-15" value="" style="endArrow=none;html=1;rounded=0;exitX=0.794;exitY=0.917;exitDx=0;exitDy=0;exitPerimeter=0;" edge="1" parent="1" source="BwyAsZSVWtQcep6ZcAnb-13">
          <mxGeometry width="50" height="50" relative="1" as="geometry">
            <mxPoint x="700" y="260" as="sourcePoint" />
            <mxPoint x="720" y="190" as="targetPoint" />
          </mxGeometry>
        </mxCell>
        <mxCell id="BwyAsZSVWtQcep6ZcAnb-16" value="" style="endArrow=none;html=1;rounded=0;exitX=0;exitY=0.5;exitDx=0;exitDy=0;" edge="1" parent="1" source="BwyAsZSVWtQcep6ZcAnb-13">
          <mxGeometry width="50" height="50" relative="1" as="geometry">
            <mxPoint x="660" y="380" as="sourcePoint" />
            <mxPoint x="720" y="190" as="targetPoint" />
          </mxGeometry>
        </mxCell>
        <mxCell id="BwyAsZSVWtQcep6ZcAnb-18" value="Выгрузить в эксель" style="text;html=1;align=center;verticalAlign=middle;whiteSpace=wrap;rounded=0;fontStyle=5;fontColor=#B266FF;" vertex="1" parent="1">
          <mxGeometry x="70" y="60" width="260" height="30" as="geometry" />
        </mxCell>
        <mxCell id="BwyAsZSVWtQcep6ZcAnb-19" value="" style="rounded=0;whiteSpace=wrap;html=1;" vertex="1" parent="1">
          <mxGeometry x="620" y="290" width="170" height="250" as="geometry" />
        </mxCell>
        <mxCell id="BwyAsZSVWtQcep6ZcAnb-20" value="Графики" style="text;html=1;align=center;verticalAlign=middle;whiteSpace=wrap;rounded=0;fontColor=#CCCCCC;" vertex="1" parent="1">
          <mxGeometry x="680" y="380" width="60" height="30" as="geometry" />
        </mxCell>
        <mxCell id="BwyAsZSVWtQcep6ZcAnb-22" value="Name: Плаксина ..." style="text;html=1;align=center;verticalAlign=middle;whiteSpace=wrap;rounded=0;" vertex="1" parent="1">
          <mxGeometry x="60" y="100" width="150" height="30" as="geometry" />
        </mxCell>
        <mxCell id="BwyAsZSVWtQcep6ZcAnb-23" value="Job: СГУ ..." style="text;html=1;align=center;verticalAlign=middle;whiteSpace=wrap;rounded=0;" vertex="1" parent="1">
          <mxGeometry x="65" y="130" width="90" height="30" as="geometry" />
        </mxCell>
        <mxCell id="BwyAsZSVWtQcep6ZcAnb-24" value="Departament" style="text;html=1;align=center;verticalAlign=middle;whiteSpace=wrap;rounded=0;" vertex="1" parent="1">
          <mxGeometry x="80" y="160" width="60" height="30" as="geometry" />
        </mxCell>
        <mxCell id="BwyAsZSVWtQcep6ZcAnb-26" style="edgeStyle=orthogonalEdgeStyle;rounded=0;orthogonalLoop=1;jettySize=auto;html=1;exitX=0.5;exitY=1;exitDx=0;exitDy=0;" edge="1" parent="1" source="BwyAsZSVWtQcep6ZcAnb-24" target="BwyAsZSVWtQcep6ZcAnb-24">
          <mxGeometry relative="1" as="geometry" />
        </mxCell>
      </root>
    </mxGraphModel>
  </diagram>
</mxfile>
